# xmcd
#
# Track frame offsets: 
#        183
#        18858
#        35420
#        55000
#        72920
#        89708
#        103080
#        121670
#        139513
#        157895
#
# Disc length: 2366 seconds
#
# Revision: 20
# Processed by: cddbd v1.5.2PL0 Copyright (c) Steve Scherf et al.
# Submitted via: ExactAudioCopy v1.1
#
DISCID=78093c0a
DTITLE=Cray, Robert - Strong Persuader
DYEAR=1986
DGENRE=Blues
TTITLE0=Smoking Gun
TTITLE1=I Guess I Showed Her
TTITLE2=Right Next Door (Because Of Me)
TTITLE3=Nothin' But A Woman
TTITLE4=Still Around
TTITLE5=More Than I Can Stand
TTITLE6=Foul Play
TTITLE7=I Wonder
TTITLE8=Fantasized
TTITLE9=New Blood
EXTD=YEAR: 1986
EXTT0=
EXTT1=
EXTT2=
EXTT3=
EXTT4=
EXTT5=
EXTT6=
EXTT7=
EXTT8=
EXTT9=
PLAYORDER=
